<?xml version="1.0" encoding="UTF-8"?><svg id="Layer_1" xmlns="http://www.w3.org/2000/svg" viewBox="0 0 800 800"><defs><style>.cls-1{fill:#45af45;}.cls-2{fill:#1c274c;}</style></defs><path class="cls-2" d="M466.67,750h-133.33c-64.83,0-111.67,0-149.63-5.1-43.46-5.84-72.96-18.57-95.66-41.27-22.7-22.7-35.43-52.2-41.27-95.66-5.1-37.97-5.1-84.81-5.1-149.63v-66.67c0-64.83,0-111.67,5.1-149.63,5.84-43.46,18.57-72.96,41.27-95.66,22.7-22.7,52.2-35.43,95.66-41.27,37.97-5.1,84.81-5.1,149.63-5.1h133.33c64.83,0,111.67,0,149.63,5.1,43.46,5.84,72.96,18.57,95.66,41.27,22.7,22.7,35.43,52.2,41.27,95.66,5.1,37.97,5.1,84.81,5.1,149.63v66.67c0,64.83,0,111.67-5.1,149.63-5.84,43.46-18.57,72.96-41.27,95.66-24.95,24.95-57.7,37.78-109.51,42.87-13.75,1.35-25.98-8.69-27.33-22.43-1.35-13.74,8.69-25.98,22.43-27.33,39.85-3.92,62.75-12.17,79.05-28.47,31.73-31.73,31.73-91.28,31.73-209.94v-66.67c0-118.65,0-178.21-31.73-209.94-31.73-31.73-91.28-31.73-209.94-31.73h-133.33c-118.65,0-178.21,0-209.94,31.73-31.73,31.73-31.73,91.29-31.73,209.94v66.67c0,118.65,0,178.21,31.73,209.94,31.73,31.73,91.29,31.73,209.94,31.73h133.33c13.81,0,25,11.19,25,25s-11.19,25-25,25Z"/><path class="cls-2" d="M233.33,150c-13.81,0-25-11.19-25-25v-50c0-13.81,11.19-25,25-25s25,11.19,25,25v50c0,13.81-11.19,25-25,25Z"/><path class="cls-2" d="M566.67,150c-13.81,0-25-11.19-25-25v-50c0-13.81,11.19-25,25-25s25,11.19,25,25v50c0,13.81-11.19,25-25,25Z"/><path class="cls-2" d="M716.67,316.67h-358.33c-13.81,0-25-11.19-25-25s11.19-25,25-25h358.33c13.81,0,25,11.19,25,25s-11.19,25-25,25ZM195.83,316.67H66.67c-13.81,0-25-11.19-25-25s11.19-25,25-25h129.17c13.81,0,25,11.19,25,25s-11.19,25-25,25Z"/><path class="cls-1" d="M440.73,614.78c-4.41,0-8.83-1.52-12.43-4.63-7.94-6.87-8.82-18.87-1.95-26.82l147.92-171.12c6.87-7.94,18.87-8.82,26.82-1.95,7.94,6.87,8.82,18.87,1.95,26.82l-147.92,171.12c-3.76,4.35-9.06,6.58-14.39,6.58Z"/><path class="cls-1" d="M322.48,614.78c-5.52,0-10.77-2.39-14.38-6.57l-76.05-87.84c-6.87-7.94-6.01-19.95,1.93-26.82,7.94-6.87,19.95-6.01,26.82,1.93l61.67,71.23,133.55-154.49c6.87-7.94,18.87-8.82,26.82-1.95,7.94,6.87,8.82,18.87,1.95,26.82l-147.92,171.12c-3.61,4.18-8.86,6.58-14.38,6.58Z"/></svg>

